<svg xmlns="http://www.w3.org/2000/svg" viewBox="0 0 32 32">
<style>
    path {
        fill: #000;
    }
    @media (prefers-color-scheme: dark) {
        path {
            fill: #fff;
        }
    }
</style>
<path d="M26.38751,9.38007l.72864-.72864.25549.25549a.64943.64943,0,0,0,.91565,0l.9599-.9599a.64932.64932,0,0,0,0-.91565L26.96863,4.75281a.64932.64932,0,0,0-.91565,0l-.9599.95984a.64939.64939,0,0,0,0,.91571l.25549.25549-.72864.72864A13.43586,13.43586,0,0,0,17.5,4.588V3.932h1.85254A.6494.6494,0,0,0,20,3.28448V1.07941A.64939.64939,0,0,0,19.35254.432H12.64746A.64939.64939,0,0,0,12,1.07941V3.28448a.6494.6494,0,0,0,.64746.64747H14.5v.656A13.4978,13.4978,0,1,0,26.38751,9.38007ZM16,28.5A10.5,10.5,0,1,1,26.5,18,10.51188,10.51188,0,0,1,16,28.5Z"/><path d="M17,9.5a1,1,0,0,0-2,0s-1,7.76288-1,8.5a2,2,0,0,0,4,0C18,17.263,17,9.5,17,9.5Z"/></svg>