<?xml version="1.0" standalone="no"?>
<!DOCTYPE svg PUBLIC "-//W3C//DTD SVG 20010904//EN"
 "http://www.w3.org/TR/2001/REC-SVG-20010904/DTD/svg10.dtd">
<svg version="1.0" xmlns="http://www.w3.org/2000/svg"
 width="260.000000pt" height="260.000000pt" viewBox="0 0 260.000000 260.000000"
 preserveAspectRatio="xMidYMid meet">
<metadata>
Created by potrace 1.11, written by Peter Selinger 2001-2013
</metadata>
<g transform="translate(0.000000,260.000000) scale(0.100000,-0.100000)"
fill="#000000" stroke="none">
<path d="M1202 2406 c-116 -38 -196 -138 -209 -260 -13 -124 63 -256 174 -302
18 -8 33 -18 33 -23 0 -4 -28 -14 -62 -21 -35 -8 -78 -20 -97 -27 -28 -12 -35
-12 -42 -1 -10 14 -12 27 -10 45 1 7 -8 31 -19 53 -18 36 -24 40 -48 34 -46
-11 -106 -40 -125 -61 -17 -20 -17 -22 4 -66 13 -25 26 -44 30 -42 4 3 14 -6
22 -19 15 -22 14 -24 -54 -80 -253 -206 -352 -544 -252 -861 63 -201 230 -386
428 -475 116 -52 186 -65 340 -64 119 0 217 22 322 70 190 87 350 267 414 467
29 91 31 103 36 228 6 141 -17 250 -77 371 -61 122 -126 201 -226 279 -49 37
-52 42 -42 65 6 13 17 24 23 24 7 0 20 17 29 39 15 32 16 42 5 59 -15 25 -85
61 -126 66 -27 3 -33 -2 -52 -41 -12 -24 -19 -48 -16 -53 3 -5 1 -19 -5 -30
-8 -15 -15 -18 -28 -11 -9 5 -53 17 -97 27 -44 9 -84 21 -88 24 -5 4 11 17 35
30 59 30 105 76 136 135 22 42 27 63 27 130 0 68 -4 89 -28 137 -31 62 -88
117 -153 144 -52 22 -149 27 -202 10z m202 -90 c124 -73 153 -235 61 -344 -29
-35 -85 -69 -85 -53 0 6 11 20 24 33 24 22 25 28 23 138 l-2 115 -30 14 c-42
20 -171 19 -211 -2 l-32 -16 0 -116 c0 -111 1 -116 24 -132 24 -15 33 -43 14
-43 -6 0 -30 18 -53 39 -77 71 -97 177 -51 269 60 121 204 165 318 98z"/>
</g>
</svg>
